<svg width="1221" height="1221" viewBox="0 0 1221 1221" fill="none" xmlns="http://www.w3.org/2000/svg">
<g clip-path="url(#clip0_464_592)">
<path d="M1187 610.5C1187 928.892 928.892 1187 610.5 1187C292.108 1187 34 928.892 34 610.5C34 292.108 292.108 34 610.5 34C928.892 34 1187 292.108 1187 610.5Z" fill="white" stroke="#7033FC" stroke-width="68"/>
<path d="M855 529V827.833C855 835.038 852.138 841.948 847.043 847.043C841.948 852.138 835.038 855 827.833 855H393.167C385.962 855 379.052 852.138 373.957 847.043C368.862 841.948 366 835.038 366 827.833V529" stroke="#7033FC" stroke-width="40" stroke-linecap="round" stroke-linejoin="round"/>
<path d="M366 393.167C366 385.962 368.862 379.052 373.957 373.957C379.052 368.862 385.962 366 393.167 366H827.833C835.038 366 841.948 368.862 847.043 373.957C852.138 379.052 855 385.962 855 393.167V529H366V393.167Z" stroke="#7033FC" stroke-width="40" stroke-linejoin="round"/>
<path fill-rule="evenodd" clip-rule="evenodd" d="M447.25 475C454.477 475 461.408 472.103 466.519 466.945C471.629 461.788 474.5 454.793 474.5 447.5C474.5 440.207 471.629 433.212 466.519 428.055C461.408 422.897 454.477 420 447.25 420C440.023 420 433.092 422.897 427.981 428.055C422.871 433.212 420 440.207 420 447.5C420 454.793 422.871 461.788 427.981 466.945C433.092 472.103 440.023 475 447.25 475ZM529 475C536.227 475 543.158 472.103 548.269 466.945C553.379 461.788 556.25 454.793 556.25 447.5C556.25 440.207 553.379 433.212 548.269 428.055C543.158 422.897 536.227 420 529 420C521.773 420 514.842 422.897 509.731 428.055C504.621 433.212 501.75 440.207 501.75 447.5C501.75 454.793 504.621 461.788 509.731 466.945C514.842 472.103 521.773 475 529 475V475ZM610.75 475C617.977 475 624.908 472.103 630.019 466.945C635.129 461.788 638 454.793 638 447.5C638 440.207 635.129 433.212 630.019 428.055C624.908 422.897 617.977 420 610.75 420C603.523 420 596.592 422.897 591.481 428.055C586.371 433.212 583.5 440.207 583.5 447.5C583.5 454.793 586.371 461.788 591.481 466.945C596.592 472.103 603.523 475 610.75 475V475Z" fill="#7033FC"/>
</g>
<defs>
<clipPath id="clip0_464_592">
<rect width="1221" height="1221" fill="white"/>
</clipPath>
</defs>
</svg>
