<?xml version="1.0" encoding="UTF-8" standalone="no"?>
<!DOCTYPE svg PUBLIC "-//W3C//DTD SVG 1.1//EN" "http://www.w3.org/Graphics/SVG/1.1/DTD/svg11.dtd">
<svg width="100%" height="100%" viewBox="0 0 250 250" version="1.1" xmlns="http://www.w3.org/2000/svg" xmlns:xlink="http://www.w3.org/1999/xlink" xml:space="preserve" xmlns:serif="http://www.serif.com/" style="fill-rule:evenodd;clip-rule:evenodd;stroke-linecap:round;stroke-linejoin:round;stroke-miterlimit:1.5;">
    <g id="Layer2" transform="matrix(1,0,0,1,-375,-375)">
        <g transform="matrix(0.184365,2.96917e-18,-6.92806e-18,0.174409,429.418,405.945)">
            <circle cx="0" cy="0" r="134.567" style="fill:white;"/>
        </g>
        <g transform="matrix(0.244859,3.94342e-18,-9.2013e-18,0.231636,408.554,586.483)">
            <circle cx="0" cy="0" r="134.567" style="fill:white;"/>
        </g>
        <g transform="matrix(0.301268,4.85187e-18,-1.18014e-17,0.297091,583.509,457.687)">
            <circle cx="0" cy="0" r="134.567" style="fill:white;"/>
        </g>
        <g transform="matrix(-2.95655,-2.37628,1.48625,-1.84918,1177.89,1959.54)">
            <path d="M370.182,336.472L387,290.616" style="fill:white;stroke:white;stroke-width:7.27px;"/>
        </g>
        <g transform="matrix(0.749901,1.94682,5.45936,-2.10291,-1411.16,356.009)">
            <path d="M345.291,290.616L387,290.616" style="fill:none;stroke:white;stroke-width:5.24px;"/>
        </g>
        <g transform="matrix(-1.20065,1.84568,-1.98867,-1.29367,1455.9,242.802)">
            <path d="M345.291,290.616L387,290.616" style="fill:none;stroke:white;stroke-width:10.05px;"/>
        </g>
    </g>
    <g transform="matrix(0.472883,7.61572e-18,-1.777e-17,0.447347,88.4314,128.042)">
        <g id="Layer3">
            <circle cx="0" cy="0" r="134.567" style="fill:white;"/>
        </g>
    </g>
    <g id="Layer21" serif:id="Layer2" transform="matrix(1,0,0,1,-375,-375)">
        <g transform="matrix(0.355447,5.72443e-18,-1.3357e-17,0.336253,463.431,503.042)">
            <circle cx="0" cy="0" r="134.567" style="fill:rgb(23,171,192);"/>
        </g>
        <g transform="matrix(0.111819,1.80083e-18,-4.20194e-18,0.105781,429.418,405.945)">
            <circle cx="0" cy="0" r="134.567" style="fill:rgb(23,171,192);"/>
        </g>
        <g transform="matrix(0.158671,2.55537e-18,-5.96254e-18,0.150102,408.554,586.483)">
            <circle cx="0" cy="0" r="134.567" style="fill:rgb(23,171,192);"/>
        </g>
        <g transform="matrix(-1.20065,1.84568,-1.98867,-1.29367,1455.9,242.802)">
            <path d="M345.291,290.616L387,290.616" style="fill:none;stroke:rgb(23,171,192);stroke-width:4.37px;"/>
        </g>
        <g transform="matrix(0.224035,3.60805e-18,-8.77599e-18,0.220929,583.509,457.687)">
            <circle cx="0" cy="0" r="134.567" style="fill:rgb(23,171,192);"/>
        </g>
        <g transform="matrix(-2.95655,-2.37628,1.48625,-1.84918,1177.89,1959.54)">
            <path d="M370.182,336.472L387,290.616" style="fill:none;stroke:rgb(23,171,192);stroke-width:3.16px;"/>
        </g>
        <g transform="matrix(0.749901,1.94682,5.45936,-2.10291,-1411.16,356.009)">
            <path d="M345.291,290.616L387,290.616" style="fill:none;stroke:rgb(23,171,192);stroke-width:2.28px;"/>
        </g>
    </g>
    <g transform="matrix(2.37243,0,0,2.37243,-787.471,-658.34)">
        <g id="Layer1">
            <path d="M374.008,326.916C373.656,326.404 373.16,325.98 372.52,325.644C371.88,325.308 371.192,325.14 370.456,325.14C368.632,325.14 367.216,325.684 366.208,326.772C365.2,327.86 364.696,329.284 364.696,331.044C364.696,332.804 365.2,334.228 366.208,335.316C367.216,336.404 368.632,336.948 370.456,336.948C371.256,336.948 371.944,336.772 372.52,336.42C373.096,336.068 373.592,335.652 374.008,335.172L378.76,340.164C377.64,341.316 376.32,342.124 374.8,342.588C373.28,343.052 371.832,343.284 370.456,343.284C368.664,343.284 366.976,342.996 365.392,342.42C363.808,341.844 362.432,341.02 361.264,339.948C360.096,338.876 359.176,337.588 358.504,336.084C357.832,334.58 357.496,332.9 357.496,331.044C357.496,329.188 357.832,327.508 358.504,326.004C359.176,324.5 360.096,323.212 361.264,322.14C362.432,321.068 363.808,320.244 365.392,319.668C366.976,319.092 368.664,318.804 370.456,318.804C371.832,318.804 373.28,319.036 374.8,319.5C376.32,319.964 377.64,320.772 378.76,321.924L374.008,326.916Z" style="fill:white;fill-rule:nonzero;"/>
        </g>
    </g>
</svg>
