<svg width="1221" height="1221" viewBox="0 0 1221 1221" fill="none" xmlns="http://www.w3.org/2000/svg">
<g clip-path="url(#clip0_464_597)">
<path d="M1187 610.5C1187 928.892 928.892 1187 610.5 1187C292.108 1187 34 928.892 34 610.5C34 292.108 292.108 34 610.5 34C928.892 34 1187 292.108 1187 610.5Z" fill="white" stroke="#7033FC" stroke-width="68"/>
<path d="M338 722.481C364.22 727.834 388.289 740.786 407.211 759.725C426.133 778.665 439.073 802.756 444.421 829M338 611.866C393.415 618.035 445.083 642.894 484.509 682.356C523.935 721.818 548.771 773.534 554.934 829M338 501.25V446.625C338 432.138 343.75 418.243 353.985 407.999C364.219 397.755 378.101 392 392.575 392H829.172C843.646 392 857.527 397.755 867.762 407.999C877.997 418.243 883.747 432.138 883.747 446.625V774.375C883.747 788.862 877.997 802.757 867.762 813.001C857.527 823.245 843.646 829 829.172 829H665.448" stroke="#7033FC" stroke-width="40" stroke-linecap="round" stroke-linejoin="round"/>
<path d="M338 829H339.007" stroke="#7033FC" stroke-width="40" stroke-linecap="round" stroke-linejoin="round"/>
</g>
<defs>
<clipPath id="clip0_464_597">
<rect width="1221" height="1221" fill="white"/>
</clipPath>
</defs>
</svg>
