<svg width="18" height="16" viewBox="0 0 18 16" fill="none" xmlns="http://www.w3.org/2000/svg">
<path d="M9 0C13.9707 0 18 4.1226 18 9.20841C18.0014 10.4198 17.7684 11.6196 17.3146 12.7385C16.8608 13.8574 16.1951 14.8734 15.3558 15.728C14.9958 16.0963 14.4108 16.0889 14.0598 15.716L13.302 14.9121C13.22 14.825 13.1555 14.7223 13.1123 14.6097C13.0691 14.4972 13.048 14.377 13.0501 14.2561C13.0523 14.1352 13.0777 14.0159 13.125 13.9051C13.1722 13.7942 13.2403 13.6939 13.3254 13.61C13.4973 13.4405 13.7279 13.3478 13.9665 13.3523C14.0847 13.3546 14.2013 13.3806 14.3096 13.4289C14.418 13.4772 14.516 13.5469 14.598 13.634L14.6862 13.7279C15.5128 12.6391 16.0241 11.3348 16.1621 9.96341C16.3001 8.592 16.0592 7.20848 15.4668 5.97021C14.8744 4.73193 13.9543 3.68859 12.8111 2.95883C11.6679 2.22908 10.3475 1.84221 9 1.84221C7.65254 1.84221 6.33212 2.22908 5.18891 2.95883C4.04569 3.68859 3.12556 4.73193 2.53316 5.97021C1.94076 7.20848 1.69986 8.592 1.83787 9.96341C1.97587 11.3348 2.48723 12.6391 3.3138 13.7279L3.402 13.634C3.48403 13.5469 3.58201 13.4772 3.69035 13.4289C3.7987 13.3806 3.91529 13.3546 4.03346 13.3523C4.15163 13.3501 4.26907 13.3717 4.37908 13.4159C4.48909 13.4602 4.58951 13.5261 4.6746 13.61C4.7597 13.6939 4.82781 13.7942 4.87504 13.9051C4.92227 14.0159 4.94769 14.1352 4.94987 14.2561C4.95204 14.377 4.93092 14.4972 4.8877 14.6097C4.84449 14.7223 4.78003 14.825 4.698 14.9121L3.9402 15.716C3.85639 15.8048 3.75615 15.8756 3.64531 15.9243C3.53448 15.973 3.41528 15.9987 3.29466 15.9998C3.17403 16.0009 3.05439 15.9775 2.94272 15.9308C2.83105 15.8841 2.72957 15.8152 2.6442 15.728C1.80493 14.8734 1.1392 13.8574 0.685389 12.7385C0.231575 11.6196 -0.00135924 10.4198 5.96638e-06 9.20841C5.96638e-06 4.1226 4.0293 0 9 0ZM9 3.68336C9.2387 3.68336 9.46761 3.78038 9.6364 3.95307C9.80518 4.12576 9.9 4.35998 9.9 4.6042V9.45519C10.2431 9.65791 10.5113 9.97081 10.6629 10.3454C10.8145 10.7199 10.8411 11.1352 10.7386 11.5268C10.636 11.9183 10.4101 12.2644 10.0957 12.5112C9.78138 12.758 9.39623 12.8918 9 12.8918C8.60377 12.8918 8.21862 12.758 7.90428 12.5112C7.58994 12.2644 7.36397 11.9183 7.26142 11.5268C7.15886 11.1352 7.18546 10.7199 7.33708 10.3454C7.4887 9.97081 7.75687 9.65791 8.1 9.45519V4.6042C8.1 4.35998 8.19482 4.12576 8.36361 3.95307C8.53239 3.78038 8.76131 3.68336 9 3.68336Z" fill="currentColor"/>
</svg>
